<svg id="svg" version="1.1" xmlns="http://www.w3.org/2000/svg" xmlns:xlink="http://www.w3.org/1999/xlink" width="400" height="400" viewBox="0, 0, 400,400"><g id="svgg"><path id="path0" d="M191.044 60.684 C 189.740 61.034,188.219 62.173,188.114 62.877 C 188.011 63.568,189.685 69.417,191.319 74.074 C 197.332 91.211,199.911 98.190,203.604 107.308 C 207.487 116.897,209.336 123.483,209.531 128.421 C 209.861 136.762,207.120 138.996,194.620 140.579 C 183.284 142.014,175.145 145.190,165.738 151.848 C 162.570 154.090,148.926 167.944,144.956 172.951 C 142.550 175.985,139.378 179.893,135.439 184.676 C 133.187 187.410,130.039 191.245,128.442 193.199 C 122.056 201.014,114.802 207.065,101.520 215.654 C 92.445 221.523,88.069 225.631,85.942 230.278 C 85.157 231.992,85.216 232.018,87.403 230.920 C 91.832 228.695,100.677 225.834,102.418 226.062 C 104.879 226.385,105.955 228.544,104.649 230.539 C 104.115 231.354,103.068 231.846,99.766 232.833 C 95.032 234.250,88.231 237.064,86.847 238.180 C 86.450 238.500,86.641 238.807,89.326 242.165 C 93.669 247.596,100.217 253.141,105.187 255.598 L 106.865 256.428 109.280 256.151 C 117.247 255.238,122.390 251.388,129.291 241.170 C 131.890 237.321,134.419 236.794,135.440 239.888 C 136.671 243.619,127.140 255.622,120.068 259.246 C 117.788 260.415,117.790 260.418,120.978 261.030 C 130.243 262.808,143.538 262.770,153.918 260.936 C 156.427 260.493,160.111 259.911,162.105 259.642 C 164.099 259.373,167.257 258.901,169.123 258.593 C 182.637 256.365,186.951 257.575,184.999 263.049 C 183.454 267.381,184.581 280.882,187.175 289.123 C 188.121 292.130,192.689 300.441,194.470 302.397 C 197.073 305.255,197.163 305.816,195.912 311.355 C 192.160 327.961,193.896 337.646,203.273 352.433 C 203.909 353.435,204.358 355.457,204.226 356.725 C 204.193 357.047,203.709 358.152,203.150 359.181 C 200.807 363.497,198.980 373.547,198.960 382.222 C 198.950 386.503,199.099 387.580,200.164 390.970 L 200.744 392.818 206.512 392.674 C 255.111 391.468,313.676 364.362,343.314 329.357 C 344.992 327.375,347.044 324.701,349.801 320.905 L 350.713 319.649 350.424 318.246 C 348.891 310.804,343.349 302.754,335.322 296.310 C 331.827 293.504,331.649 293.086,332.411 289.456 C 335.296 275.719,328.398 257.602,316.241 246.988 C 314.906 245.822,308.674 240.647,307.122 239.415 C 305.604 238.210,305.448 237.179,306.091 232.614 C 306.851 227.225,305.855 222.094,302.457 213.887 C 298.536 204.416,295.144 199.469,286.121 190.058 L 281.411 185.146 280.439 182.690 C 274.270 167.103,258.484 148.484,247.111 143.381 C 242.985 141.530,242.587 140.132,244.045 132.632 C 248.079 111.882,238.032 88.544,217.839 71.756 C 208.768 64.215,196.604 59.188,191.044 60.684 M160.535 73.282 C 156.433 77.554,151.309 88.601,149.011 98.129 C 144.540 116.666,147.975 134.557,157.881 144.327 C 160.862 147.268,161.040 147.340,162.601 146.226 C 170.522 140.572,181.051 136.122,189.509 134.854 C 191.171 134.605,191.186 134.571,190.519 132.617 C 190.192 131.660,188.974 127.667,187.813 123.743 C 183.455 109.016,171.890 82.909,166.734 76.161 C 165.144 74.080,162.695 71.813,162.037 71.813 C 161.987 71.813,161.311 72.474,160.535 73.282 M185.488 189.622 C 189.160 191.792,188.490 201.187,184.253 206.936 C 178.660 214.526,166.723 215.323,160.724 208.507 C 157.076 204.364,155.191 199.388,156.623 197.686 C 158.448 195.517,161.270 196.667,162.639 200.137 C 164.063 203.746,166.770 206.307,169.686 206.803 C 176.920 208.034,181.751 203.033,181.756 194.307 C 181.758 189.928,183.117 188.222,185.488 189.622 " stroke="none" fill="#ffffff" fill-rule="evenodd"></path><path id="path1" d="M189.006 0.161 C 82.442 6.289,0.003 93.317,0.000 199.689 C -0.004 346.274,152.026 442.599,285.146 380.355 C 308.131 369.607,334.235 350.332,347.875 334.035 C 356.817 323.352,358.443 321.279,363.882 313.635 C 382.239 287.832,394.818 254.001,398.348 220.936 C 410.102 110.838,329.839 11.964,219.766 0.946 C 211.184 0.087,196.714 -0.283,189.006 0.161 M213.567 7.014 C 347.188 17.702,429.932 154.885,376.601 277.310 C 371.492 289.039,360.644 307.907,355.777 313.530 C 355.684 313.637,355.379 313.039,355.100 312.200 C 353.158 306.364,346.719 297.868,339.811 292.026 L 338.453 290.877 338.817 288.117 C 341.118 270.667,333.092 253.046,316.574 239.281 C 313.049 236.343,311.821 235.190,311.908 234.899 C 313.233 230.475,312.283 222.540,309.553 215.230 C 305.018 203.085,300.779 196.457,291.199 186.534 L 286.667 181.840 285.497 178.932 C 279.345 163.638,262.984 144.493,250.886 138.430 C 250.109 138.041,249.455 137.708,249.433 137.690 C 249.410 137.672,249.540 137.026,249.721 136.255 C 253.273 121.134,250.914 106.782,242.307 91.155 C 232.408 73.182,213.997 58.058,197.544 54.384 C 188.115 52.279,180.664 57.139,181.942 64.561 C 182.810 69.599,190.731 92.328,197.310 108.655 C 202.238 120.885,203.976 127.914,202.980 131.579 L 202.661 132.749 200.125 133.278 C 198.730 133.569,197.557 133.775,197.518 133.736 C 197.404 133.622,195.248 126.646,193.568 120.952 C 191.031 112.356,188.955 107.095,181.893 91.353 C 168.142 60.703,160.023 57.768,149.135 79.511 C 136.425 104.894,138.236 133.580,153.514 148.862 L 156.293 151.643 155.148 152.645 C 154.518 153.196,152.378 155.417,150.393 157.580 C 148.408 159.744,145.638 162.726,144.238 164.207 C 142.838 165.689,140.676 168.164,139.434 169.708 C 138.191 171.251,136.497 173.357,135.669 174.386 C 134.841 175.415,132.371 178.428,130.181 181.080 C 127.991 183.733,124.898 187.496,123.307 189.442 C 120.262 193.169,116.522 196.927,113.648 199.147 C 112.703 199.877,111.035 201.166,109.942 202.012 C 106.593 204.602,102.071 207.765,97.779 210.521 C 80.726 221.469,75.064 231.791,80.870 241.346 C 88.672 254.188,103.330 263.935,119.802 267.233 C 129.886 269.252,144.540 269.168,155.871 267.026 C 157.563 266.706,160.632 266.226,162.690 265.959 C 164.749 265.692,167.959 265.217,169.825 264.904 C 173.093 264.356,178.243 263.779,178.407 263.943 C 178.451 263.987,178.393 265.117,178.280 266.456 C 177.791 272.220,178.968 282.730,180.830 289.220 C 182.304 294.356,187.445 304.209,189.803 306.415 C 190.551 307.115,190.553 307.429,189.833 310.449 C 186.172 325.791,187.959 338.796,195.445 351.298 L 198.064 355.673 197.397 356.928 C 193.647 363.994,191.618 382.500,193.697 390.682 C 193.947 391.669,194.152 392.537,194.152 392.612 C 194.152 393.466,175.102 391.620,165.146 389.801 C 61.017 370.777,-8.398 271.704,9.253 167.302 C 22.037 91.687,78.845 30.570,153.450 12.166 C 165.904 9.095,176.138 7.629,191.696 6.690 C 194.405 6.527,210.443 6.764,213.567 7.014 M196.921 60.694 C 211.605 63.783,229.208 79.114,238.024 96.491 C 244.805 109.859,246.474 120.170,243.971 133.243 C 242.670 140.042,243.099 141.273,247.557 143.534 C 259.639 149.664,274.390 167.151,280.481 182.565 L 281.494 185.131 285.579 189.349 C 295.508 199.601,298.740 204.394,303.155 215.413 C 306.187 222.979,306.924 227.605,306.057 233.625 C 305.835 235.166,305.743 236.693,305.836 237.309 C 306.013 238.494,305.581 238.074,312.166 243.463 C 324.085 253.217,330.553 263.690,332.767 276.824 C 333.253 279.701,333.120 286.988,332.541 289.240 C 331.675 292.611,332.016 293.535,335.011 295.925 C 343.121 302.397,348.506 310.082,350.517 318.054 L 350.882 319.501 348.833 322.350 C 323.297 357.867,268.365 386.924,216.866 392.155 C 210.834 392.768,201.191 393.108,200.826 392.720 C 197.342 389.012,198.899 366.772,203.195 358.891 C 204.904 355.757,204.715 354.918,200.895 348.655 C 193.763 336.964,192.400 326.625,195.918 310.893 C 197.092 305.640,197.018 305.254,194.246 302.196 C 192.347 300.103,188.084 292.263,187.051 288.967 C 184.332 280.289,183.312 267.047,185.027 262.695 C 185.804 260.725,185.451 259.306,183.938 258.317 C 182.832 257.594,174.556 257.730,169.825 258.550 C 167.830 258.895,164.229 259.444,161.821 259.769 C 159.413 260.094,155.782 260.668,153.751 261.046 C 147.551 262.197,145.737 262.340,137.427 262.331 C 128.530 262.322,119.751 261.454,118.046 260.415 C 117.937 260.348,118.800 259.790,119.965 259.175 C 124.776 256.634,130.729 250.534,134.256 244.530 C 135.955 241.637,135.820 239.025,133.930 238.236 C 132.286 237.549,131.378 238.172,129.110 241.544 C 122.905 250.771,117.813 254.787,110.758 256.017 C 106.415 256.775,104.677 256.089,98.012 250.987 C 94.618 248.389,86.558 239.566,86.551 238.441 C 86.547 237.683,94.906 234.134,100.569 232.489 C 104.944 231.218,106.350 229.110,104.234 226.994 C 102.623 225.383,95.041 227.204,87.403 231.037 C 84.963 232.261,84.955 232.259,85.717 230.535 C 87.885 225.633,91.559 222.174,101.871 215.325 C 116.536 205.586,122.242 200.763,129.002 192.398 C 130.665 190.339,133.513 186.865,135.330 184.678 C 137.147 182.491,140.329 178.587,142.400 176.002 C 144.472 173.418,147.885 169.467,149.984 167.224 C 152.084 164.981,154.591 162.262,155.556 161.182 C 162.587 153.313,172.113 146.670,180.726 143.630 C 184.810 142.189,189.946 141.038,195.340 140.357 C 202.823 139.411,207.099 137.796,208.283 135.469 C 210.861 130.407,209.454 122.049,203.575 107.485 C 200.948 100.976,196.855 90.161,195.209 85.380 C 194.655 83.772,193.404 80.231,192.427 77.512 C 189.079 68.185,187.669 63.163,188.180 62.383 C 189.345 60.604,193.072 59.884,196.921 60.694 M163.455 72.503 C 165.889 74.265,170.415 81.092,173.192 87.188 C 182.169 106.891,184.983 113.856,187.702 123.108 C 188.672 126.407,189.836 130.251,190.288 131.651 C 190.741 133.051,191.111 134.294,191.111 134.413 C 191.111 134.533,189.874 134.880,188.363 135.185 C 178.780 137.117,172.188 139.922,163.413 145.801 C 161.038 147.392,161.321 147.412,158.892 145.474 C 150.797 139.014,145.903 123.684,147.139 108.655 C 148.153 96.318,154.629 79.122,160.438 73.341 C 162.205 71.583,162.191 71.587,163.455 72.503 M183.132 189.591 C 182.248 190.071,182.043 190.854,181.888 194.349 C 181.474 203.710,176.678 208.376,169.089 206.801 C 166.680 206.301,163.870 203.412,162.486 200.012 C 161.486 197.552,160.079 196.483,158.285 196.819 C 152.673 197.872,159.565 210.285,166.968 212.458 C 177.216 215.467,186.957 208.161,187.746 196.874 C 188.096 191.856,185.757 188.164,183.132 189.591 " stroke="none" fill="#000000" fill-rule="evenodd"></path><path id="path2" d="M191.696 6.690 C 178.862 7.465,171.673 8.335,161.871 10.300 C 60.108 30.701,-7.274 127.556,8.904 230.175 C 22.040 313.499,88.618 378.976,172.398 390.964 C 180.942 392.186,194.152 393.187,194.152 392.612 C 194.152 392.537,193.947 391.669,193.697 390.682 C 191.618 382.500,193.647 363.994,197.397 356.928 L 198.064 355.673 195.445 351.298 C 187.959 338.796,186.172 325.791,189.833 310.449 C 190.553 307.429,190.551 307.115,189.803 306.415 C 187.445 304.209,182.304 294.356,180.830 289.220 C 178.968 282.730,177.791 272.220,178.280 266.456 C 178.393 265.117,178.451 263.987,178.407 263.943 C 178.243 263.779,173.093 264.356,169.825 264.904 C 167.959 265.217,164.749 265.692,162.690 265.959 C 160.632 266.226,157.563 266.706,155.871 267.026 C 146.511 268.795,137.412 269.148,126.550 268.162 C 108.873 266.557,93.760 258.455,83.505 245.086 C 74.260 233.032,78.426 222.946,97.779 210.521 C 102.071 207.765,106.593 204.602,109.942 202.012 C 111.035 201.166,112.703 199.877,113.648 199.147 C 116.522 196.927,120.262 193.169,123.307 189.442 C 124.898 187.496,127.991 183.733,130.181 181.080 C 132.371 178.428,134.841 175.415,135.669 174.386 C 136.497 173.357,138.191 171.251,139.434 169.708 C 140.676 168.164,142.838 165.689,144.238 164.207 C 145.638 162.726,148.408 159.744,150.393 157.580 C 152.378 155.417,154.518 153.196,155.148 152.645 L 156.293 151.643 153.514 148.862 C 138.236 133.580,136.425 104.894,149.135 79.511 C 160.023 57.768,168.142 60.703,181.893 91.353 C 188.955 107.095,191.031 112.356,193.568 120.952 C 195.248 126.646,197.404 133.622,197.518 133.736 C 197.557 133.775,198.730 133.569,200.125 133.278 L 202.661 132.749 202.980 131.579 C 203.976 127.914,202.238 120.885,197.310 108.655 C 190.731 92.328,182.810 69.599,181.942 64.561 C 180.664 57.139,188.115 52.279,197.544 54.384 C 213.997 58.058,232.408 73.182,242.307 91.155 C 250.914 106.782,253.273 121.134,249.721 136.255 C 249.540 137.026,249.410 137.672,249.433 137.690 C 249.455 137.708,250.109 138.041,250.886 138.430 C 262.984 144.493,279.345 163.638,285.497 178.932 L 286.667 181.840 291.199 186.534 C 300.779 196.457,305.018 203.085,309.553 215.230 C 312.283 222.540,313.233 230.475,311.908 234.899 C 311.821 235.190,313.049 236.343,316.574 239.281 C 333.092 253.046,341.118 270.667,338.817 288.117 L 338.453 290.877 339.811 292.026 C 346.719 297.868,353.158 306.364,355.100 312.200 C 355.379 313.039,355.684 313.637,355.777 313.530 C 356.300 312.926,359.094 308.868,361.227 305.614 C 415.776 222.413,398.115 111.222,320.468 49.009 C 289.829 24.460,253.562 10.213,213.567 7.014 C 210.443 6.764,194.405 6.527,191.696 6.690 M164.435 73.509 C 165.008 74.120,165.508 74.620,165.546 74.620 C 165.721 74.620,165.536 74.410,164.503 73.441 L 163.392 72.398 164.435 73.509 M223.392 76.842 C 224.480 77.936,225.422 78.830,225.487 78.830 C 225.551 78.830,224.714 77.936,223.626 76.842 C 222.538 75.749,221.595 74.854,221.531 74.854 C 221.466 74.854,222.304 75.749,223.392 76.842 M146.979 112.047 C 146.979 113.012,147.021 113.406,147.071 112.924 C 147.121 112.442,147.121 111.652,147.071 111.170 C 147.021 110.687,146.979 111.082,146.979 112.047 M245.005 122.573 C 245.005 124.439,245.042 125.202,245.086 124.269 C 245.130 123.336,245.130 121.810,245.086 120.877 C 245.042 119.944,245.005 120.708,245.005 122.573 M243.100 138.596 C 243.103 139.111,243.150 139.294,243.206 139.003 C 243.262 138.712,243.260 138.291,243.202 138.067 C 243.143 137.844,243.097 138.082,243.100 138.596 M156.959 143.699 C 156.959 143.739,157.301 144.081,157.719 144.459 L 158.480 145.146 157.792 144.386 C 157.152 143.677,156.959 143.518,156.959 143.699 M259.064 152.047 C 259.698 152.690,260.269 153.216,260.333 153.216 C 260.398 153.216,259.932 152.690,259.298 152.047 C 258.665 151.404,258.094 150.877,258.029 150.877 C 257.965 150.877,258.431 151.404,259.064 152.047 M263.743 156.725 C 264.245 157.240,264.709 157.661,264.773 157.661 C 264.838 157.661,264.479 157.240,263.977 156.725 C 263.474 156.211,263.010 155.789,262.946 155.789 C 262.882 155.789,263.240 156.211,263.743 156.725 M157.891 158.772 L 155.439 161.287 157.953 158.835 C 159.336 157.486,160.468 156.354,160.468 156.320 C 160.468 156.151,160.168 156.436,157.891 158.772 M151.453 165.673 L 150.292 166.901 151.520 165.740 C 152.196 165.101,152.749 164.549,152.749 164.512 C 152.749 164.337,152.532 164.531,151.453 165.673 M147.708 169.649 L 146.784 170.643 147.778 169.719 C 148.702 168.859,148.879 168.655,148.702 168.655 C 148.664 168.655,148.217 169.102,147.708 169.649 M285.965 189.942 C 287.117 191.099,288.113 192.047,288.177 192.047 C 288.242 192.047,287.351 191.099,286.199 189.942 C 285.046 188.784,284.051 187.836,283.986 187.836 C 283.922 187.836,284.812 188.784,285.965 189.942 M181.836 193.450 C 181.836 194.544,181.876 194.991,181.926 194.444 C 181.975 193.898,181.975 193.003,181.926 192.456 C 181.876 191.909,181.836 192.357,181.836 193.450 M290.292 194.503 C 290.729 194.953,291.139 195.322,291.203 195.322 C 291.267 195.322,290.963 194.953,290.526 194.503 C 290.090 194.053,289.680 193.684,289.616 193.684 C 289.552 193.684,289.856 194.053,290.292 194.503 M122.913 199.357 L 121.988 200.351 122.982 199.426 C 123.529 198.918,123.977 198.470,123.977 198.432 C 123.977 198.255,123.773 198.432,122.913 199.357 M182.690 208.538 C 182.122 209.117,181.710 209.591,181.774 209.591 C 181.838 209.591,182.356 209.117,182.924 208.538 C 183.492 207.959,183.904 207.485,183.840 207.485 C 183.776 207.485,183.258 207.959,182.690 208.538 M161.160 208.947 C 162.129 209.980,162.339 210.166,162.339 209.990 C 162.339 209.953,161.839 209.453,161.228 208.879 L 160.117 207.836 161.160 208.947 M90.632 223.684 L 89.708 224.678 90.702 223.754 C 91.626 222.894,91.803 222.690,91.626 222.690 C 91.588 222.690,91.141 223.137,90.632 223.684 M101.465 226.130 C 101.756 226.186,102.177 226.184,102.400 226.126 C 102.624 226.067,102.386 226.021,101.871 226.024 C 101.357 226.026,101.174 226.074,101.465 226.130 M306.253 227.836 C 306.253 228.287,306.301 228.471,306.360 228.246 C 306.419 228.020,306.419 227.652,306.360 227.427 C 306.301 227.202,306.253 227.386,306.253 227.836 M105.084 228.772 C 105.084 229.222,105.132 229.406,105.190 229.181 C 105.249 228.956,105.249 228.588,105.190 228.363 C 105.132 228.137,105.084 228.322,105.084 228.772 M177.962 257.717 C 178.772 257.763,180.035 257.763,180.769 257.716 C 181.504 257.670,180.842 257.633,179.298 257.633 C 177.754 257.634,177.153 257.671,177.962 257.717 M132.807 262.395 C 133.482 262.442,134.588 262.442,135.263 262.395 C 135.939 262.347,135.386 262.309,134.035 262.309 C 132.684 262.309,132.132 262.347,132.807 262.395 M141.466 262.392 C 141.887 262.444,142.518 262.443,142.870 262.389 C 143.221 262.336,142.877 262.293,142.105 262.295 C 141.333 262.296,141.046 262.340,141.466 262.392 M184.178 269.708 C 184.178 270.930,184.217 271.430,184.266 270.819 C 184.314 270.208,184.314 269.208,184.266 268.596 C 184.217 267.985,184.178 268.485,184.178 269.708 M338.246 298.787 C 338.246 298.827,338.588 299.169,339.006 299.547 L 339.766 300.234 339.079 299.474 C 338.439 298.765,338.246 298.606,338.246 298.787 M339.637 333.509 L 338.830 334.386 339.708 333.580 C 340.190 333.136,340.585 332.742,340.585 332.703 C 340.585 332.524,340.387 332.692,339.637 333.509 M332.270 340.877 L 331.345 341.871 332.339 340.947 C 333.264 340.087,333.441 339.883,333.264 339.883 C 333.226 339.883,332.778 340.330,332.270 340.877 M209.883 392.676 C 210.108 392.735,210.477 392.735,210.702 392.676 C 210.927 392.617,210.743 392.569,210.292 392.569 C 209.842 392.569,209.658 392.617,209.883 392.676 M201.930 392.920 C 202.541 392.969,203.541 392.969,204.152 392.920 C 204.763 392.872,204.263 392.833,203.041 392.833 C 201.819 392.833,201.319 392.872,201.930 392.920 " stroke="none" fill="BACKGROUND_COLOR" fill-rule="evenodd"></path></g></svg>